<svg viewBox="0 0 24 24" fill="none" xmlns="http://www.w3.org/2000/svg">
<path d="M7.61308 12.3712L3.38821 6.60656L2.23529 5.03271C1.73594 5.7306 1.3098 6.48633 0.967314 7.28372C0.962076 7.29408 0.959457 7.30189 0.956857 7.31245C0.807819 7.65749 0.677119 8.01033 0.562075 8.3712C0.554237 8.39739 0.546398 8.42613 0.538559 8.45232C0.491506 8.60129 0.447053 8.75298 0.407839 8.90722C0.394761 8.94631 0.384302 8.98815 0.373844 9.02744C0.334629 9.18422 0.298035 9.34119 0.26406 9.50051C0.25882 9.52417 0.253582 9.55036 0.248362 9.57636C0.209149 9.76207 0.175154 9.94778 0.146398 10.1358C0.141158 10.1648 0.13856 10.1935 0.13334 10.2222C0.109803 10.3765 0.0914865 10.5307 0.0731893 10.6875C0.0679699 10.7424 0.0627308 10.7999 0.0575114 10.8574C0.0444335 10.9934 0.0339943 11.1293 0.0235163 11.2653C0.0209165 11.3203 0.0182974 11.3778 0.0156779 11.4327C0.00523902 11.6209 0 11.8091 0 12C0 15.5582 1.55814 18.7606 4.02612 20.9594L5.89801 18.7789C4.04442 17.1084 2.87581 14.6875 2.87581 12C2.87581 11.8143 2.88362 11.634 2.89411 11.4509C2.89673 11.3934 2.90195 11.3359 2.90716 11.2757C2.91763 11.1502 2.9281 11.0274 2.94377 10.9045C2.949 10.8654 2.95424 10.8286 2.95945 10.7895L7.43519 16.9907L11.6078 12.1358V7.72552L7.61308 12.3712Z" fill="#002A51"/>
<path d="M23.9841 11.4327C23.9816 11.3778 23.979 11.3228 23.9762 11.2653C23.966 11.1293 23.9554 10.9934 23.9424 10.8574C23.9372 10.7999 23.9319 10.7424 23.9266 10.6875C23.9085 10.5307 23.8901 10.3765 23.8666 10.2195C23.8613 10.1935 23.8588 10.1648 23.8535 10.1358C23.8247 9.94778 23.7908 9.76207 23.7515 9.57636C23.7462 9.55036 23.7411 9.52671 23.7359 9.50051C23.7019 9.34119 23.6653 9.18422 23.6259 9.02744C23.6157 8.98815 23.6051 8.94631 23.5947 8.90722C23.5529 8.75552 23.5084 8.60129 23.4614 8.45232C23.4536 8.42339 23.4456 8.39739 23.4377 8.3712C23.3228 8.01033 23.192 7.65749 23.043 7.31245C23.0405 7.30189 23.0378 7.29408 23.0325 7.28372C22.6901 6.48633 22.2638 5.7306 21.7646 5.03271L20.6612 6.53599L16.3868 12.3712L12.3921 7.72552V12.1358L16.5647 16.9907L21.0405 10.7895C21.0456 10.8286 21.0509 10.8654 21.0561 10.9045C21.0718 11.0274 21.0824 11.1502 21.0927 11.2757C21.098 11.3334 21.1033 11.3934 21.1058 11.4509C21.1162 11.6313 21.1242 11.8142 21.1242 11.9972V12C21.1242 14.2013 20.3397 16.2222 19.0378 17.8012C18.8522 18.0259 18.6562 18.2404 18.4496 18.4471C18.3372 18.5595 18.2195 18.6719 18.0992 18.7764L19.9763 20.9594C22.4443 18.7581 23.9999 15.5582 23.9999 12C23.9999 11.8091 23.9947 11.6209 23.9841 11.4327Z" fill="#002A51"/>
<path d="M16.7292 19.8011C15.349 20.6404 13.7305 21.124 12 21.124C9.93464 21.124 8.02867 20.4364 6.49667 19.2731L4.61957 21.4561C6.65614 23.0484 9.21819 24 12 24C13.6549 24 15.2313 23.6626 16.6666 23.0561C17.5632 22.6744 18.4052 22.1882 19.1763 21.6129C19.2287 21.5738 19.2784 21.5346 19.3306 21.4927L17.4535 19.3097C17.2208 19.4849 16.9778 19.6496 16.7292 19.8011Z" fill="#002A51"/>
<path d="M20.1727 3.22451C18.0285 1.22608 15.1554 0 11.9999 0C8.84443 0 5.9714 1.22608 3.82709 3.22451L5.54 5.56173C6.93712 4.15991 8.78695 3.21161 10.8489 2.95104V7.60669L11.9999 6.2684L13.151 7.60669V2.95104C15.2129 3.21161 17.0627 4.16011 18.4599 5.56193L20.1727 3.22451Z" fill="#002A51"/>
</svg>
